<svg width="31" height="30" viewBox="0 0 31 30" xmlns="http://www.w3.org/2000/svg">
    <g fill="#3A67CA" fill-rule="nonzero">
        <path d="M26.678 12.191v16.084H3.701V12.191h22.977z" opacity=".2"/>
        <path d="M28.135 13.847v13.845A2.308 2.308 0 0 1 25.827 30H5.06a2.308 2.308 0 0 1-2.308-2.308V13.847a2.308 2.308 0 0 1 2.308-2.308H8.52a1.154 1.154 0 0 1 0 2.308H5.059v13.845h20.768V13.847h-3.461a1.154 1.154 0 0 1 0-2.308h3.461a2.308 2.308 0 0 1 2.308 2.308zM10.49 7.74l3.799-3.8v13.368a1.154 1.154 0 0 0 2.308 0V3.94l3.799 3.8a1.154 1.154 0 0 0 1.632-1.633L16.26.338a1.154 1.154 0 0 0-1.632 0l-5.77 5.77A1.154 1.154 0 0 0 10.49 7.74z"/>
    </g>
</svg>
