<svg width="25" height="25" viewBox="0 0 25 25" xmlns="http://www.w3.org/2000/svg">
    <g fill="#75A0FF" fill-rule="nonzero">
        <path d="M23.8 1.37v15.92h-5.97V7.34H7.878V1.37h15.92z" opacity=".2"/>
        <path d="M23.8.375H7.878a.995.995 0 0 0-.995.995v4.975H1.908a.995.995 0 0 0-.995.995v15.92a.995.995 0 0 0 .995.996H17.83a.995.995 0 0 0 .995-.995v-4.975H23.8a.995.995 0 0 0 .995-.995V1.37A.995.995 0 0 0 23.8.375zm-6.966 21.89H2.904V8.336h13.93v13.93zm5.97-5.97h-3.98V7.34a.995.995 0 0 0-.995-.995H8.874v-3.98h13.93v13.93z"/>
    </g>
</svg>
