<svg width="31" height="30" viewBox="0 0 31 30" xmlns="http://www.w3.org/2000/svg">
    <g fill="#3A67CA" fill-rule="nonzero">
        <path d="M25.881 5.77v21.922c0 .306-.12.6-.336.816a1.145 1.145 0 0 1-.812.338H6.362c-.305 0-.597-.121-.812-.338a1.157 1.157 0 0 1-.336-.816V5.77H25.88z" opacity=".2"/>
        <path d="M28.178 4.615h-5.741V3.462a3.47 3.47 0 0 0-1.01-2.448A3.436 3.436 0 0 0 18.993 0h-6.89c-.913 0-1.789.365-2.435 1.014a3.47 3.47 0 0 0-1.009 2.448v1.153h-5.74c-.305 0-.597.122-.812.338a1.157 1.157 0 0 0 .811 1.97h1.149v20.77c0 .611.242 1.198.672 1.631A2.29 2.29 0 0 0 6.362 30h18.371a2.29 2.29 0 0 0 1.624-.676c.43-.433.672-1.02.672-1.632V6.923h1.149c.304 0 .596-.121.811-.338a1.157 1.157 0 0 0-.811-1.97zM10.955 3.462c0-.306.12-.6.336-.816.215-.217.507-.338.812-.338h6.89c.304 0 .596.121.811.338.215.216.336.51.336.816v1.153h-9.185V3.462zm13.778 24.23H6.362V6.923h18.371v20.77zm-11.482-15v9.231c0 .306-.12.6-.336.816a1.145 1.145 0 0 1-1.96-.816v-9.23c0-.307.12-.6.336-.817a1.145 1.145 0 0 1 1.96.816zm6.89 0v9.231c0 .306-.122.6-.337.816a1.145 1.145 0 0 1-1.96-.816v-9.23c0-.307.12-.6.336-.817a1.145 1.145 0 0 1 1.96.816z"/>
    </g>
</svg>
