<svg width="18" height="18" viewBox="0 0 18 18" xmlns="http://www.w3.org/2000/svg">
    <g fill="#3A67CA" fill-rule="evenodd">
        <path d="M.823.71C6.005.24 9.798.24 12.201.71c2.403.468 3.356 1.21 2.857 2.227 1.117.718 1.882 2.136 2.296 4.254.414 2.118.268 5.407-.436 9.867L13.301 18v-7.428h-8.98v6.81L.428 16.307.823.71z" opacity=".199"/>
        <path d="M17.56 4.5 13.5.44A1.487 1.487 0 0 0 12.44 0H1.5A1.5 1.5 0 0 0 0 1.5v15A1.5 1.5 0 0 0 1.5 18h15a1.5 1.5 0 0 0 1.5-1.5V5.56a1.487 1.487 0 0 0-.44-1.06zm-4.81 12h-7.5v-5.25h7.5v5.25zm3.75 0h-2.25v-5.25a1.5 1.5 0 0 0-1.5-1.5h-7.5a1.5 1.5 0 0 0-1.5 1.5v5.25H1.5v-15h10.94l4.06 4.06V16.5zM12 3.75a.75.75 0 0 1-.75.75H6A.75.75 0 1 1 6 3h5.25a.75.75 0 0 1 .75.75z"/>
    </g>
</svg>
