<svg width="30" height="30" viewBox="0 0 30 30" xmlns="http://www.w3.org/2000/svg">
    <g fill="#3A67CA" fill-rule="nonzero">
        <path d="M28.741 2.196v7.496h-7.495l7.495-7.496zM1.26 27.18l7.495-7.495H1.26v7.495z" opacity=".2"/>
        <path d="M29.228 1.345a1.25 1.25 0 0 0-1.362.27l-2.51 2.512C22.208 1.422 18.65 0 15 0 8.31 0 4.284 3.948 4.116 4.116a1.25 1.25 0 0 0 1.768 1.768C5.917 5.85 9.333 2.5 15 2.5c3.62 0 6.55 1.695 8.581 3.4l-3.215 3.216a1.25 1.25 0 0 0 .884 2.134h7.5A1.25 1.25 0 0 0 30 10V2.5a1.25 1.25 0 0 0-.772-1.155zM27.5 8.75h-3.233L27.5 5.517V8.75zm-3.384 15.366C24.083 24.15 20.667 27.5 15 27.5c-3.62 0-6.55-1.695-8.581-3.4l3.215-3.216a1.25 1.25 0 0 0-.884-2.134h-7.5A1.25 1.25 0 0 0 0 20v7.5a1.252 1.252 0 0 0 2.134.884l2.51-2.51C7.792 28.577 11.35 30 15 30c6.69 0 10.716-3.948 10.884-4.116a1.25 1.25 0 0 0-1.768-1.768zM2.5 21.25h3.233L2.5 24.483V21.25z"/>
    </g>
</svg>
