<svg width="20" height="20" viewBox="0 0 20 20" xmlns="http://www.w3.org/2000/svg">
    <defs>
        <linearGradient x1="9.075%" y1="29.711%" x2="84.561%" y2="68.111%" id="r99k2kt8ra">
            <stop stop-color="#FFF" stop-opacity=".2" offset="0%"/>
            <stop stop-color="#FFF" stop-opacity="0" offset="100%"/>
        </linearGradient>
    </defs>
    <g fill-rule="nonzero" fill="none">
        <path d="M14.845 4.152H8.616c-.47 0-1.067.203-1.238 1.173-.021.118-2.082 13.472-2.082 13.773 0 .474.357.83.83.83h4.567a.415.415 0 0 0 .41-.347l.772-4.635h1.309A6.234 6.234 0 0 0 19.41 8.72a4.572 4.572 0 0 0-4.566-4.567z" fill="#009ADA"/>
        <path d="M10.785 19.721H6.076a.807.807 0 0 1-.753-.48c.067.397.38.688.803.688h4.567a.415.415 0 0 0 .41-.348l.003-.022a.41.41 0 0 1-.321.162zM13.184 14.739H11.91l-.036.207h1.31A6.234 6.234 0 0 0 19.41 8.72c0-.035-.005-.07-.006-.104-.056 3.386-2.823 6.124-6.221 6.124z" fill="#000" opacity=".1"/>
        <path d="M13.144 0H4.88c-.576 0-1.06.45-1.234 1.145-.024.1-2.503 14.978-2.503 15.535-.003.159-.007.377.168.556.174.177.422.201.663.201h3.554l.881-5.812h4.283c3.898 0 7.068-3.177 7.057-7.078C17.743 2.027 15.663 0 13.144 0z" fill="#273691"/>
        <path d="M4.838.208h8.34a4.656 4.656 0 0 1 4.367 3.007A4.615 4.615 0 0 0 13.144 0H4.88c-.576 0-1.06.45-1.234 1.145l-.022.127C3.818.626 4.282.208 4.838.208z" fill="#FFF" opacity=".2"/>
        <path d="M1.866 17.23c-.242 0-.489-.024-.663-.202-.013-.013-.018-.027-.03-.04.024.085.063.17.139.248.174.177.422.201.663.201h3.554l.032-.207H1.866z" fill="#000" opacity=".1"/>
        <path d="M6.41 11.625h4.283c3.686 0 6.717-2.842 7.027-6.45a4.543 4.543 0 0 0-2.875-1.023H8.616c-.47 0-1.067.203-1.238 1.173l-.968 6.3z" fill="#000" opacity=".2"/>
        <path d="M16.577 5.176c.018-.208.031-.417.03-.63C16.6 2.028 14.52 0 12.001 0H3.738c-.576 0-1.06.45-1.234 1.145C2.48 1.245.002 16.123.001 16.68c-.003.159-.007.377.168.556.174.177.422.201.663.201h3.554c-.142.962-.233 1.598-.233 1.661 0 .474.357.83.83.83H9.55a.415.415 0 0 0 .41-.347l.772-4.635h1.309a6.234 6.234 0 0 0 6.227-6.227c0-1.429-.66-2.705-1.69-3.543z" fill="url(#r99k2kt8ra)" transform="translate(1.143)"/>
    </g>
</svg>
