<svg width="31" height="30" viewBox="0 0 31 30" xmlns="http://www.w3.org/2000/svg">
    <g fill="#3A67CA" fill-rule="nonzero">
        <path d="M29.417 2.5v20a1.25 1.25 0 0 1-1.25 1.25h-20a1.25 1.25 0 0 1-1.25-1.25v-20a1.25 1.25 0 0 1 1.25-1.25h20a1.25 1.25 0 0 1 1.25 1.25z" opacity=".2"/>
        <path d="M15.667 16.25v10a1.25 1.25 0 0 1-2.5 0v-6.982L2.802 29.634a1.25 1.25 0 0 1-1.769-1.769L11.398 17.5h-6.98a1.25 1.25 0 1 1 0-2.5h9.999a1.25 1.25 0 0 1 1.25 1.25zM28.167 0h-20a2.5 2.5 0 0 0-2.5 2.5V10a1.25 1.25 0 0 0 2.5 0V2.5h20v20h-7.5a1.25 1.25 0 1 0 0 2.5h7.5a2.5 2.5 0 0 0 2.5-2.5v-20a2.5 2.5 0 0 0-2.5-2.5z"/>
    </g>
</svg>
