<svg width="24" height="24" viewBox="0 0 24 24" xmlns="http://www.w3.org/2000/svg">
    <g fill="#75A0FF" fill-rule="nonzero">
        <path d="M20.123 4.615v17.539a.93.93 0 0 1-.266.653.904.904 0 0 1-.644.27H4.643a.904.904 0 0 1-.644-.27.93.93 0 0 1-.267-.653V4.615h16.391z" opacity=".2"/>
        <path d="M21.945 3.692H17.39V2.77c0-.734-.287-1.439-.8-1.958A2.713 2.713 0 0 0 14.66 0H9.196c-.725 0-1.42.292-1.932.811-.512.52-.8 1.224-.8 1.958v.923H1.91a.904.904 0 0 0-.644.27.93.93 0 0 0 0 1.306c.17.173.402.27.644.27h.91v16.616c0 .49.192.96.534 1.305.341.346.805.541 1.288.541h14.57c.483 0 .946-.195 1.287-.54.342-.347.534-.817.534-1.306V5.538h.91a.904.904 0 0 0 .644-.27.93.93 0 0 0 0-1.305.904.904 0 0 0-.643-.27zM8.285 2.77a.93.93 0 0 1 .267-.652.904.904 0 0 1 .644-.27h5.464c.241 0 .473.096.643.27a.93.93 0 0 1 .267.652v.923H8.285V2.77zm10.928 19.385H4.643V5.538h14.57v16.616zm-9.107-12v7.384a.93.93 0 0 1-.266.653.904.904 0 0 1-1.288 0 .93.93 0 0 1-.267-.653v-7.384a.93.93 0 0 1 .267-.653.904.904 0 0 1 1.288 0 .93.93 0 0 1 .266.653zm5.464 0v7.384a.93.93 0 0 1-.267.653.904.904 0 0 1-1.287 0 .93.93 0 0 1-.267-.653v-7.384a.93.93 0 0 1 .267-.653.904.904 0 0 1 1.287 0 .93.93 0 0 1 .267.653z"/>
    </g>
</svg>
